<svg width="41" height="42" viewBox="0 0 41 42" fill="none" xmlns="http://www.w3.org/2000/svg">
<g clip-path="url(#clip0_127_75)">
<path d="M6.24609 8.19602C6.24609 3.95951 9.68047 0.525146 13.917 0.525146H27.0793C31.3158 0.525146 34.7502 3.95951 34.7502 8.19602C34.7502 10.8786 33.3732 13.2396 31.2874 14.6106C33.3732 15.9817 34.7502 18.3427 34.7502 21.0253C34.7502 25.2618 31.3158 28.6962 27.0793 28.6962H26.9127C24.9266 28.6962 23.1168 27.9414 21.7545 26.703V33.7709C21.7545 38.0639 18.2303 41.5251 13.9583 41.5251C9.73238 41.5251 6.24609 38.1012 6.24609 33.8542C6.24609 31.1718 7.623 28.8109 9.70861 27.4398C7.623 26.0687 6.24609 23.7078 6.24609 21.0253C6.24609 18.3427 7.62312 15.9817 9.70887 14.6106C7.62312 13.2396 6.24609 10.8786 6.24609 8.19602ZM19.2418 15.8671H13.917C11.0682 15.8671 8.75877 18.1765 8.75877 21.0253C8.75877 23.8631 11.0504 26.1657 13.884 26.1835C13.895 26.1834 13.906 26.1834 13.917 26.1834H19.2418V15.8671ZM21.7545 21.0253C21.7545 23.8741 24.0639 26.1835 26.9127 26.1835H27.0793C29.9282 26.1835 32.2375 23.8741 32.2375 21.0253C32.2375 18.1765 29.9282 15.8671 27.0793 15.8671H26.9127C24.0639 15.8671 21.7545 18.1765 21.7545 21.0253ZM13.917 28.6962C13.906 28.6962 13.895 28.6962 13.884 28.6962C11.0504 28.7138 8.75877 31.0164 8.75877 33.8542C8.75877 36.6926 11.099 39.0125 13.9583 39.0125C16.8637 39.0125 19.2418 36.6553 19.2418 33.7709V28.6962H13.917ZM13.917 3.03782C11.0682 3.03782 8.75877 5.34723 8.75877 8.19602C8.75877 11.0448 11.0682 13.3542 13.917 13.3542H19.2418V3.03782H13.917ZM21.7545 13.3542H27.0793C29.9282 13.3542 32.2375 11.0448 32.2375 8.19602C32.2375 5.34723 29.9282 3.03782 27.0793 3.03782H21.7545V13.3542Z" fill="#F64348"/>
</g>
<defs>
<clipPath id="clip0_127_75">
<rect width="41" height="41" fill="white" transform="translate(0 0.525146)"/>
</clipPath>
</defs>
</svg>
