<svg width="24" height="25" viewBox="0 0 24 25" fill="none" xmlns="http://www.w3.org/2000/svg">
<g id="Icone" clip-path="url(#clip0_138_21)">
<path id="Figma" d="M3.65625 5.01548C3.65625 2.53557 5.66662 0.525208 8.14655 0.525208H15.8513C18.3312 0.525208 20.3416 2.53557 20.3416 5.01548C20.3416 6.58577 19.5355 7.96783 18.3146 8.77038C19.5355 9.57297 20.3416 10.955 20.3416 12.5253C20.3416 15.0052 18.3312 17.0156 15.8513 17.0156H15.7538C14.5912 17.0156 13.5318 16.5738 12.7343 15.8488V19.9862C12.7343 22.4991 10.6714 24.5252 8.17073 24.5252C5.697 24.5252 3.65625 22.521 3.65625 20.0349C3.65625 18.4647 4.46224 17.0827 5.68309 16.2801C4.46224 15.4775 3.65625 14.0955 3.65625 12.5253C3.65625 10.955 4.46231 9.57297 5.68324 8.77038C4.46231 7.96783 3.65625 6.58577 3.65625 5.01548ZM11.2635 9.50585H8.14655C6.47893 9.50585 5.12708 10.8577 5.12708 12.5253C5.12708 14.1865 6.46851 15.5343 8.12723 15.5447C8.13366 15.5447 8.14008 15.5447 8.14655 15.5447H11.2635V9.50585ZM12.7343 12.5253C12.7343 14.1929 14.0862 15.5448 15.7538 15.5448H15.8513C17.5189 15.5448 18.8707 14.1929 18.8707 12.5253C18.8707 10.8577 17.5189 9.50585 15.8513 9.50585H15.7538C14.0862 9.50585 12.7343 10.8577 12.7343 12.5253ZM8.14655 17.0156C8.14008 17.0156 8.13366 17.0156 8.12723 17.0156C6.46851 17.0259 5.12708 18.3738 5.12708 20.0349C5.12708 21.6964 6.49699 23.0544 8.17073 23.0544C9.87145 23.0544 11.2635 21.6746 11.2635 19.9862V17.0156H8.14655ZM8.14655 1.99604C6.47893 1.99604 5.12708 3.34789 5.12708 5.01548C5.12708 6.68308 6.47893 8.03491 8.14655 8.03491H11.2635V1.99604H8.14655ZM12.7343 8.03491H15.8513C17.5189 8.03491 18.8707 6.68308 18.8707 5.01548C18.8707 3.34789 17.5189 1.99604 15.8513 1.99604H12.7343V8.03491Z" fill="#F64348"/>
</g>
<defs>
<clipPath id="clip0_138_21">
<rect width="24" height="24" fill="white" transform="translate(0 0.525208)"/>
</clipPath>
</defs>
</svg>
