<svg width="42" height="42" viewBox="0 0 42 42" fill="none" xmlns="http://www.w3.org/2000/svg">
<g id="Icone">
<path id="Vector" d="M20.7438 1.6463C9.63691 1.6463 1.14062 10.0785 1.14062 21.1854C1.14062 30.066 6.73008 37.6654 14.7139 40.3401C15.7389 40.5242 16.0992 39.8916 16.0992 39.3711C16.0992 38.8746 16.0752 36.136 16.0752 34.4543C16.0752 34.4543 10.4697 35.6555 9.29258 32.068C9.29258 32.068 8.37969 29.7377 7.06641 29.1371C7.06641 29.1371 5.23262 27.8799 7.19453 27.9039C7.19453 27.9039 9.18848 28.0641 10.2855 29.9699C12.0393 33.061 14.9781 32.1721 16.1232 31.6436C16.3074 30.3623 16.8279 29.4734 17.4045 28.9449C12.9281 28.4484 8.41172 27.7998 8.41172 20.0963C8.41172 17.8942 9.02031 16.7891 10.3016 15.3797C10.0934 14.8592 9.4127 12.7131 10.5098 9.94239C12.1834 9.42189 16.0352 12.1045 16.0352 12.1045C17.6367 11.6561 19.3584 11.4238 21.0641 11.4238C22.7697 11.4238 24.4914 11.6561 26.093 12.1045C26.093 12.1045 29.9447 9.41388 31.6184 9.94239C32.7154 12.7211 32.0348 14.8592 31.8266 15.3797C33.1078 16.7971 33.8926 17.9022 33.8926 20.0963C33.8926 27.8238 29.176 28.4404 24.6996 28.9449C25.4363 29.5776 26.0609 30.7787 26.0609 32.6606C26.0609 35.3592 26.0369 38.6984 26.0369 39.3551C26.0369 39.8756 26.4053 40.5082 27.4223 40.324C35.4301 37.6654 40.8594 30.066 40.8594 21.1854C40.8594 10.0785 31.8506 1.6463 20.7438 1.6463Z" fill="url(#paint0_linear_127_48)"/>
</g>
<defs>
<linearGradient id="paint0_linear_127_48" x1="21" y1="1.6463" x2="21" y2="40.3727" gradientUnits="userSpaceOnUse">
<stop stop-color="#F64348"/>
<stop offset="1" stop-color="#F64348" stop-opacity="0"/>
</linearGradient>
</defs>
</svg>
