<svg width="41" height="42" viewBox="0 0 41 42" fill="none" xmlns="http://www.w3.org/2000/svg">
<path d="M20.2437 1.64624C9.13691 1.64624 0.640625 10.0785 0.640625 21.1853C0.640625 30.066 6.23008 37.6654 14.2139 40.34C15.2389 40.5242 15.5992 39.8916 15.5992 39.371C15.5992 38.8746 15.5752 36.1359 15.5752 34.4543C15.5752 34.4543 9.96973 35.6554 8.79258 32.0679C8.79258 32.0679 7.87969 29.7376 6.56641 29.1371C6.56641 29.1371 4.73262 27.8798 6.69453 27.9039C6.69453 27.9039 8.68848 28.064 9.78555 29.9699C11.5393 33.0609 14.4781 32.172 15.6232 31.6435C15.8074 30.3623 16.3279 29.4734 16.9045 28.9449C12.4281 28.4484 7.91172 27.7998 7.91172 20.0962C7.91172 17.8941 8.52031 16.789 9.80156 15.3796C9.59336 14.8591 8.91269 12.713 10.0098 9.94233C11.6834 9.42183 15.5352 12.1044 15.5352 12.1044C17.1367 11.656 18.8584 11.4238 20.5641 11.4238C22.2697 11.4238 23.9914 11.656 25.593 12.1044C25.593 12.1044 29.4447 9.41382 31.1184 9.94233C32.2154 12.721 31.5348 14.8591 31.3266 15.3796C32.6078 16.797 33.3926 17.9021 33.3926 20.0962C33.3926 27.8238 28.676 28.4404 24.1996 28.9449C24.9363 29.5775 25.5609 30.7787 25.5609 32.6605C25.5609 35.3591 25.5369 38.6984 25.5369 39.355C25.5369 39.8755 25.9053 40.5082 26.9223 40.324C34.9301 37.6654 40.3594 30.066 40.3594 21.1853C40.3594 10.0785 31.3506 1.64624 20.2437 1.64624Z" fill="#F64348"/>
</svg>
