<svg width="41" height="42" viewBox="0 0 41 42" fill="none" xmlns="http://www.w3.org/2000/svg">
<path d="M35.0312 2.52515H6.84375C4.72168 2.52515 3 4.24683 3 6.3689V34.5564C3 36.6785 4.72168 38.4001 6.84375 38.4001H35.0312C37.1533 38.4001 38.875 36.6785 38.875 34.5564V6.3689C38.875 4.24683 37.1533 2.52515 35.0312 2.52515ZM22.523 30.5044C22.523 33.9958 20.473 35.5894 17.4861 35.5894C14.7875 35.5894 13.226 34.196 12.4252 32.5064L15.1719 30.8488C15.7004 31.7857 16.1809 32.5785 17.342 32.5785C18.4471 32.5785 19.1518 32.146 19.1518 30.4564V18.9972H22.523V30.5044ZM30.4988 35.5894C27.3678 35.5894 25.3418 34.1 24.3568 32.146L27.1035 30.5605C27.8242 31.7376 28.7691 32.6105 30.4268 32.6105C31.8201 32.6105 32.717 31.9138 32.717 30.9449C32.717 29.7917 31.8041 29.3833 30.2586 28.7027L29.4178 28.3423C26.9834 27.3093 25.3738 26.0041 25.3738 23.2574C25.3738 20.7269 27.3037 18.805 30.3066 18.805C32.4527 18.805 33.9902 19.5498 35.0953 21.5037L32.4688 23.1853C31.8922 22.1523 31.2676 21.7439 30.2986 21.7439C29.3137 21.7439 28.6891 22.3685 28.6891 23.1853C28.6891 24.1943 29.3137 24.6027 30.7631 25.2353L31.6039 25.5957C34.4707 26.8209 36.0803 28.0781 36.0803 30.8968C36.0803 33.9238 33.6939 35.5894 30.4988 35.5894Z" fill="#F64348"/>
</svg>
