<svg width="24" height="25" viewBox="0 0 24 25" fill="none" xmlns="http://www.w3.org/2000/svg">
<g id="light-mode 1">
<path id="Vector" d="M11.9941 16C12.9647 16 13.7917 15.6603 14.475 14.9809C15.1583 14.3015 15.5 13.4765 15.5 12.5059C15.5 11.5353 15.1603 10.7083 14.4809 10.025C13.8015 9.34167 12.9765 9 12.0059 9C11.0353 9 10.2083 9.33971 9.525 10.0191C8.84167 10.6985 8.5 11.5235 8.5 12.4941C8.5 13.4647 8.83971 14.2917 9.51913 14.975C10.1985 15.6583 11.0235 16 11.9941 16ZM12 17.5C10.6167 17.5 9.4375 17.0125 8.4625 16.0375C7.4875 15.0625 7 13.8833 7 12.5C7 11.1167 7.4875 9.9375 8.4625 8.9625C9.4375 7.9875 10.6167 7.5 12 7.5C13.3833 7.5 14.5625 7.9875 15.5375 8.9625C16.5125 9.9375 17 11.1167 17 12.5C17 13.8833 16.5125 15.0625 15.5375 16.0375C14.5625 17.0125 13.3833 17.5 12 17.5ZM1.75 13.25C1.5375 13.25 1.35938 13.1777 1.21563 13.0331C1.07188 12.8885 1 12.7094 1 12.4956C1 12.2819 1.07188 12.1042 1.21563 11.9625C1.35938 11.8208 1.5375 11.75 1.75 11.75H4.25C4.4625 11.75 4.64063 11.8223 4.78438 11.9669C4.92813 12.1115 5 12.2906 5 12.5044C5 12.7181 4.92813 12.8958 4.78438 13.0375C4.64063 13.1792 4.4625 13.25 4.25 13.25H1.75ZM19.75 13.25C19.5375 13.25 19.3594 13.1777 19.2156 13.0331C19.0719 12.8885 19 12.7094 19 12.4956C19 12.2819 19.0719 12.1042 19.2156 11.9625C19.3594 11.8208 19.5375 11.75 19.75 11.75H22.25C22.4625 11.75 22.6406 11.8223 22.7844 11.9669C22.9281 12.1115 23 12.2906 23 12.5044C23 12.7181 22.9281 12.8958 22.7844 13.0375C22.6406 13.1792 22.4625 13.25 22.25 13.25H19.75ZM11.9956 5.5C11.7819 5.5 11.6042 5.42813 11.4625 5.28438C11.3208 5.14063 11.25 4.9625 11.25 4.75V2.25C11.25 2.0375 11.3223 1.85938 11.4669 1.71563C11.6115 1.57188 11.7906 1.5 12.0044 1.5C12.2181 1.5 12.3958 1.57188 12.5375 1.71563C12.6792 1.85938 12.75 2.0375 12.75 2.25V4.75C12.75 4.9625 12.6777 5.14063 12.5331 5.28438C12.3885 5.42813 12.2094 5.5 11.9956 5.5ZM11.9956 23.5C11.7819 23.5 11.6042 23.4282 11.4625 23.2845C11.3208 23.1407 11.25 22.9625 11.25 22.75V20.25C11.25 20.0375 11.3223 19.8594 11.4669 19.7156C11.6115 19.5719 11.7906 19.5 12.0044 19.5C12.2181 19.5 12.3958 19.5719 12.5375 19.7156C12.6792 19.8594 12.75 20.0375 12.75 20.25V22.75C12.75 22.9625 12.6777 23.1407 12.5331 23.2845C12.3885 23.4282 12.2094 23.5 11.9956 23.5ZM6 7.55L4.575 6.15C4.425 6 4.35309 5.81998 4.35928 5.60993C4.36544 5.39986 4.43649 5.22069 4.57243 5.07243C4.72069 4.92414 4.89986 4.85 5.10993 4.85C5.31998 4.85 5.5 4.925 5.65 5.075L7.05 6.5C7.18333 6.65 7.25 6.825 7.25 7.025C7.25 7.225 7.18333 7.39583 7.05 7.5375C6.91667 7.67917 6.74583 7.75 6.5375 7.75C6.32917 7.75 6.15 7.68333 6 7.55ZM18.35 19.925L16.95 18.5C16.8167 18.35 16.75 18.1719 16.75 17.9656C16.75 17.7594 16.8208 17.5875 16.9625 17.45C17.1042 17.3 17.275 17.225 17.475 17.225C17.675 17.225 17.85 17.3 18 17.45L19.425 18.85C19.575 19 19.6469 19.18 19.6407 19.3901C19.6346 19.6001 19.5635 19.7793 19.4276 19.9276C19.2793 20.0759 19.1001 20.15 18.8901 20.15C18.68 20.15 18.5 20.075 18.35 19.925ZM16.95 7.55C16.8 7.4 16.725 7.225 16.725 7.025C16.725 6.825 16.8 6.65 16.95 6.5L18.35 5.075C18.5 4.925 18.68 4.85309 18.8901 4.85928C19.1001 4.86544 19.2793 4.93649 19.4276 5.07243C19.5759 5.22069 19.65 5.39986 19.65 5.60993C19.65 5.81998 19.575 6 19.425 6.15L18 7.55C17.8667 7.68333 17.697 7.75 17.4909 7.75C17.2848 7.75 17.1046 7.68333 16.95 7.55ZM4.57243 19.9276C4.42414 19.7793 4.35 19.6001 4.35 19.3901C4.35 19.18 4.425 19 4.575 18.85L6 17.45C6.14667 17.3 6.32083 17.225 6.5225 17.225C6.72417 17.225 6.89674 17.3 7.04023 17.45C7.19674 17.6 7.275 17.775 7.275 17.975C7.275 18.175 7.2 18.35 7.05 18.5L5.65 19.925C5.5 20.075 5.31998 20.1469 5.10993 20.1407C4.89986 20.1346 4.72069 20.0635 4.57243 19.9276Z" fill="#A7B5C4"/>
</g>
</svg>
