<svg width="42" height="42" viewBox="0 0 42 42" fill="none" xmlns="http://www.w3.org/2000/svg">
<g id="Icone">
<path id="Vector" d="M36.375 3.08771H5.61699C4.20762 3.08771 3.0625 4.24884 3.0625 5.67423V36.3762C3.0625 37.8016 4.20762 38.9627 5.61699 38.9627H36.375C37.7844 38.9627 38.9375 37.8016 38.9375 36.3762V5.67423C38.9375 4.24884 37.7844 3.08771 36.375 3.08771ZM13.9051 33.8377H8.58789V16.717H13.9131V33.8377H13.9051ZM11.2465 14.3787C9.54082 14.3787 8.16348 12.9934 8.16348 11.2957C8.16348 9.59806 9.54082 8.21271 11.2465 8.21271C12.9441 8.21271 14.3295 9.59806 14.3295 11.2957C14.3295 13.0014 12.9521 14.3787 11.2465 14.3787ZM33.8365 33.8377H28.5193V25.5096C28.5193 23.5236 28.4793 20.9692 25.7566 20.9692C22.9859 20.9692 22.5615 23.1313 22.5615 25.3654V33.8377H17.2443V16.717H22.3453V19.0553H22.4174C23.1301 17.71 24.8678 16.2926 27.4543 16.2926C32.8355 16.2926 33.8365 19.84 33.8365 24.4526V33.8377Z" fill="url(#paint0_linear_127_47)"/>
</g>
<defs>
<linearGradient id="paint0_linear_127_47" x1="21" y1="3.08771" x2="21" y2="38.9627" gradientUnits="userSpaceOnUse">
<stop stop-color="#F64348"/>
<stop offset="1" stop-color="#F64348" stop-opacity="0"/>
</linearGradient>
</defs>
</svg>
