<svg width="64" height="64" viewBox="0 0 64 64" fill="none" xmlns="http://www.w3.org/2000/svg">
<g clip-path="url(#clip0_318_29)">
<g clip-path="url(#clip1_318_29)">
<path d="M58.9121 49.0529C55.4325 48.9661 52.7357 49.3143 50.4739 50.271C49.8215 50.5319 48.7775 50.5321 48.6904 51.3584C49.0386 51.7065 49.082 52.2719 49.3865 52.7503C49.9088 53.6199 50.8218 54.7946 51.6483 55.4036C52.5616 56.0994 53.4752 56.7952 54.4318 57.4043C56.1283 58.4483 58.0421 59.057 59.6949 60.101C60.6521 60.7095 61.6085 61.4929 62.5655 62.1454C63.0441 62.493 63.3483 63.0586 63.9574 63.2761V63.1457C63.6529 62.7541 63.5658 62.1887 63.2616 61.7538C62.8269 61.3188 62.3917 60.9273 61.9567 60.4923C60.6952 58.7962 59.1295 57.3172 57.4331 56.0994C56.0415 55.1425 52.9966 53.8376 52.4312 52.2283C52.4312 52.2283 52.3875 52.1849 52.3441 52.1415C53.3011 52.0544 54.4318 51.7065 55.3454 51.4454C56.8244 51.0538 58.1726 51.1409 59.6949 50.7496C60.3907 50.5755 61.0868 50.358 61.7826 50.1406V49.7493C61 48.9661 60.4344 47.9224 59.6079 47.1829C57.3897 45.2688 54.9538 43.3988 52.4312 41.8331C51.0827 40.9632 49.3429 40.3975 47.9076 39.6583C47.3859 39.3969 46.5157 39.2668 46.2114 38.8318C45.4283 37.8749 44.9934 36.6137 44.428 35.4826C43.1671 33.0901 41.9487 30.4373 40.8613 27.9147C40.0788 26.2182 39.6002 24.5218 38.6432 22.9561C34.1633 15.562 29.2918 11.082 21.8106 6.68886C20.2012 5.77558 18.2876 5.38401 16.2433 4.90568C15.1562 4.86202 14.0685 4.77525 12.9811 4.73159C12.2853 4.42706 11.5892 3.60083 10.9802 3.20926C8.50145 1.64327 2.10734 -1.74902 0.280498 2.73093C-0.893925 5.55811 2.0203 8.34162 3.02062 9.77717C3.76037 10.7775 4.71704 11.9083 5.23904 13.0393C5.54356 13.7782 5.63033 14.5616 5.93485 15.3445C6.63093 17.2578 7.28308 19.3895 8.19665 21.173C8.67526 22.0862 9.19698 23.0432 9.80602 23.8694C10.1539 24.3478 10.7627 24.5655 10.8934 25.3484C10.2846 26.2183 10.241 27.5231 9.89279 28.6105C8.32707 33.5254 8.93611 39.6147 11.1543 43.2247C11.8501 44.3118 13.5031 46.7046 15.7212 45.791C17.6785 45.0082 17.2436 42.5289 17.809 40.3542C17.9397 39.8319 17.8526 39.4843 18.1135 39.1363C18.1137 39.1797 18.1135 39.2234 18.1135 39.2234C18.7225 40.4412 19.3313 41.6156 19.8967 42.8334C21.2452 44.9645 23.5937 47.1829 25.551 48.6619C26.5953 49.4445 27.4215 50.793 28.7264 51.2716V51.1409H28.6393C28.3782 50.7493 27.9869 50.5755 27.639 50.271C26.8561 49.4881 25.986 48.5312 25.3772 47.6613C23.5506 45.2254 21.941 42.5289 20.5057 39.7451C19.8099 38.3969 19.2008 36.9179 18.6355 35.5697C18.3743 35.0474 18.3743 34.2649 17.9394 34.004C17.287 34.9607 16.3303 35.7872 15.8517 36.9616C15.0257 38.8318 14.9384 41.137 14.6339 43.5292C14.46 43.5729 14.5468 43.5292 14.4598 43.6163C13.0682 43.2681 12.5895 41.8331 12.0675 40.615C10.7627 37.527 10.5452 32.5684 11.6762 29.0021C11.9808 28.0885 13.2856 25.2179 12.7636 24.348C12.5028 23.5215 11.6326 23.0432 11.1542 22.3907C10.5889 21.5642 9.97983 20.5205 9.58854 19.607C8.54455 17.1713 8.02255 14.4746 6.89179 12.0387C6.3698 10.9077 5.45651 9.73352 4.71704 8.6898C3.8908 7.51538 2.97724 6.68886 2.3248 5.29696C2.1076 4.81863 1.80281 4.03577 2.15071 3.51377C2.23776 3.16587 2.41157 3.03544 2.75975 2.94839C3.32513 2.46978 4.93451 3.07882 5.49988 3.33968C7.10925 3.99183 8.45749 4.60115 9.806 5.51444C10.4148 5.94939 11.0672 6.77591 11.85 6.99338H12.7636C14.1555 7.29763 15.7212 7.08042 17.0261 7.47172C19.3315 8.21091 21.419 9.29856 23.2895 10.473C28.9875 14.083 33.6846 19.2157 36.86 25.3484C37.382 26.3484 37.5992 27.2623 38.0778 28.306C38.9914 30.4373 40.1221 32.6121 41.0354 34.6998C41.9487 36.7439 42.8186 38.8318 44.1235 40.5283C44.7762 41.4413 47.3856 41.9199 48.56 42.3985C49.4299 42.7898 50.7784 43.138 51.5613 43.6163C53.0399 44.5293 54.5189 45.5736 55.9108 46.5739C56.6069 47.0956 58.7814 48.1833 58.9121 49.0529Z" fill="#F64348"/>
<path d="M14.5466 11.2556C13.8071 11.2556 13.2854 11.3429 12.7634 11.4734C12.7634 11.4734 12.7634 11.517 12.7634 11.5604H12.8505C13.1987 12.2562 13.8071 12.7348 14.2421 13.3436C14.5903 14.0394 14.8945 14.7355 15.2427 15.4316C15.2861 15.3879 15.3295 15.3445 15.3295 15.3445C15.9388 14.9093 16.243 14.2135 16.243 13.1698C15.9819 12.8653 15.9385 12.5607 15.721 12.2562C15.4602 11.821 14.8945 11.6038 14.5466 11.2556Z" fill="#F64348"/>
</g>
</g>
<defs>
<clipPath id="clip0_318_29">
<rect width="64" height="64" fill="white"/>
</clipPath>
<clipPath id="clip1_318_29">
<rect width="64" height="64" fill="white"/>
</clipPath>
</defs>
</svg>
