<svg width="41" height="42" viewBox="0 0 41 42" fill="none" xmlns="http://www.w3.org/2000/svg">
<path d="M20.5 41.2049C19.9635 41.2049 19.4189 41.0607 18.9465 40.7885L14.0057 37.8656C13.2689 37.4492 13.6293 37.3051 13.8695 37.225C14.8545 36.8806 15.0547 36.8086 16.1037 36.208C16.2158 36.1439 16.36 36.1679 16.4721 36.24L20.2678 38.4902C20.4039 38.5703 20.5961 38.5703 20.7242 38.4902L35.5146 29.9539C35.6508 29.8738 35.7389 29.7136 35.7389 29.5535V12.4808C35.7389 12.3127 35.6508 12.1605 35.5066 12.0724L20.7242 3.54412C20.5881 3.46404 20.4039 3.46404 20.2678 3.54412L5.49336 12.0804C5.34922 12.1605 5.26113 12.3207 5.26113 12.4888V29.5535C5.26113 29.7136 5.34922 29.8738 5.49336 29.9459L9.54531 32.2842C11.7475 33.3812 13.0928 32.092 13.0928 30.7867V13.9383C13.0928 13.698 13.285 13.5138 13.5252 13.5138H15.399C15.6312 13.5138 15.8314 13.698 15.8314 13.9383V30.7947C15.8314 33.7256 14.2299 35.4072 11.4512 35.4072C10.5943 35.4072 9.92168 35.4072 8.04785 34.4783L4.17207 32.2441C3.21113 31.6916 2.61855 30.6586 2.61855 29.5455V12.4808C2.61855 11.3758 3.21113 10.3347 4.17207 9.7822L18.9465 1.24587C19.8834 0.717358 21.1246 0.717358 22.0535 1.24587L36.8439 9.79021C37.8049 10.3427 38.3975 11.3758 38.3975 12.4888V29.5535C38.3975 30.6586 37.8049 31.6916 36.8439 32.2521L22.0535 40.7885C21.5811 41.0607 21.0445 41.2049 20.5 41.2049ZM32.4396 24.3804C32.4396 21.1853 30.2775 20.3365 25.7371 19.7359C21.1406 19.1273 20.6762 18.815 20.6762 17.742C20.6762 16.8531 21.0686 15.6679 24.4719 15.6679C27.5068 15.6679 28.6279 16.3246 29.0924 18.3746C29.1324 18.5668 29.3086 18.7109 29.5088 18.7109H31.4307C31.5508 18.7109 31.6629 18.6629 31.743 18.5748C31.823 18.4867 31.8631 18.3666 31.8551 18.2465C31.5588 14.715 29.2125 13.0734 24.4719 13.0734C20.2518 13.0734 17.7373 14.8511 17.7373 17.8381C17.7373 21.0732 20.2437 21.9701 24.2877 22.3705C29.1324 22.8429 29.5088 23.5556 29.5088 24.5086C29.5088 26.1582 28.1795 26.8629 25.0645 26.8629C21.1486 26.8629 20.2918 25.8779 20.0035 23.932C19.9715 23.7238 19.7953 23.5717 19.5791 23.5717H17.6652C17.425 23.5717 17.2408 23.7638 17.2408 23.9961C17.2408 26.4865 18.5941 29.4574 25.0725 29.4574C29.749 29.4494 32.4396 27.5996 32.4396 24.3804Z" fill="#F64348"/>
</svg>
