<svg width="41" height="42" viewBox="0 0 41 42" fill="none" xmlns="http://www.w3.org/2000/svg">
<path d="M33.4887 14.714C33.0563 14.5698 32.6238 14.4337 32.1914 14.3056C32.2635 14.0093 32.3275 13.713 32.3916 13.4167C33.3766 8.64407 32.7279 4.80832 30.5418 3.54309C28.4357 2.33391 25.0004 3.59114 21.525 6.61809C21.1807 6.91438 20.8443 7.22668 20.524 7.53899C20.3078 7.33079 20.0836 7.12258 19.8594 6.92239C16.2158 3.68723 12.5643 2.3259 10.3781 3.59915C8.28008 4.81633 7.65547 8.42786 8.53633 12.9443C8.62441 13.3927 8.72051 13.8331 8.83262 14.2816C8.32012 14.4257 7.81562 14.5859 7.34316 14.754C3.06699 16.2355 0 18.5738 0 20.9921C0 23.4906 3.26719 25.997 7.71152 27.5185C8.07188 27.6386 8.43223 27.7587 8.80059 27.8628C8.68047 28.3433 8.57637 28.8157 8.48027 29.3042C7.63945 33.7486 8.29609 37.272 10.3941 38.4812C12.5563 39.7304 16.1918 38.4491 19.7312 35.3501C20.0115 35.1019 20.2918 34.8456 20.5721 34.5734C20.9244 34.9177 21.2928 35.246 21.6611 35.5663C25.0885 38.5132 28.4758 39.7064 30.5658 38.4972C32.7279 37.248 33.4326 33.4603 32.5197 28.8478C32.4477 28.4954 32.3676 28.1351 32.2795 27.7667C32.5357 27.6947 32.784 27.6146 33.0322 27.5345C37.6527 26.005 41 23.5306 41 20.9921C41 18.5657 37.8449 16.2114 33.4887 14.714ZM22.6541 7.91536C25.633 5.32082 28.4117 4.30383 29.677 5.03254C31.0303 5.8093 31.5508 8.94836 30.702 13.0724C30.6459 13.3447 30.5898 13.6089 30.5178 13.8732C28.74 13.4728 26.9383 13.1845 25.1285 13.0243C24.0875 11.5349 22.9504 10.1095 21.7172 8.77219C22.0295 8.4759 22.3338 8.19563 22.6541 7.91536ZM13.3891 25.1482C13.7975 25.8448 14.2139 26.5415 14.6543 27.2222C13.4051 27.0861 12.1639 26.8859 10.9387 26.6216C11.291 25.4685 11.7314 24.2753 12.2439 23.0581C12.6123 23.7628 12.9887 24.4595 13.3891 25.1482ZM10.9627 15.5148C12.1158 15.2585 13.341 15.0503 14.6143 14.8902C14.1898 15.5548 13.7734 16.2355 13.3811 16.9241C12.9887 17.6048 12.6043 18.3015 12.2439 19.0062C11.7395 17.813 11.315 16.6439 10.9627 15.5148ZM13.1568 21.0322C13.6854 19.9271 14.2619 18.846 14.8705 17.781C15.4791 16.7159 16.1357 15.6829 16.8244 14.6659C18.0256 14.5779 19.2508 14.5298 20.5 14.5298C21.7492 14.5298 22.9824 14.5779 24.1756 14.6659C24.8562 15.6749 25.5049 16.7079 26.1215 17.765C26.7381 18.822 27.3146 19.9031 27.8592 21.0001C27.3227 22.1052 26.7461 23.1943 26.1295 24.2673C25.5209 25.3323 24.8723 26.3654 24.1916 27.3904C22.9984 27.4784 21.7572 27.5185 20.5 27.5185C19.2428 27.5185 18.0256 27.4784 16.8484 27.4064C16.1518 26.3894 15.4951 25.3484 14.8785 24.2833C14.2619 23.2183 13.6934 22.1372 13.1568 21.0322ZM27.6189 25.1322C28.0273 24.4275 28.4117 23.7148 28.7881 22.9941C29.3006 24.1552 29.749 25.3323 30.1414 26.5415C28.9002 26.8218 27.643 27.038 26.3777 27.1822C26.8102 26.5095 27.2186 25.8208 27.6189 25.1322ZM28.7721 19.0062C28.3957 18.3015 28.0113 17.5968 27.6109 16.9081C27.2186 16.2275 26.8102 15.5548 26.3857 14.8902C27.675 15.0503 28.9082 15.2665 30.0613 15.5308C29.693 16.7159 29.2605 17.8691 28.7721 19.0062ZM20.516 9.99739C21.3568 10.9103 22.1496 11.8712 22.8863 12.8642C21.3008 12.7921 19.7072 12.7921 18.1217 12.8642C18.9064 11.8312 19.7152 10.8702 20.516 9.99739ZM11.227 5.0886C12.5723 4.30383 15.5592 5.42493 18.7063 8.21165C18.9064 8.38782 19.1066 8.58 19.3148 8.77219C18.0736 10.1095 16.9285 11.5349 15.8795 13.0243C14.0697 13.1845 12.276 13.4648 10.4982 13.8572C10.3941 13.4488 10.3061 13.0323 10.218 12.6159C9.46523 8.74016 9.96172 5.81731 11.227 5.0886ZM9.26504 26.1972C8.92871 26.1011 8.60039 25.997 8.27207 25.8849C6.56641 25.3484 4.62852 24.4995 3.22715 23.3864C2.41836 22.8259 1.87383 21.9611 1.72168 20.9921C1.72168 19.5267 4.25215 17.6529 7.90371 16.3796C8.36016 16.2195 8.82461 16.0753 9.28906 15.9392C9.83359 17.6769 10.4902 19.3825 11.251 21.0322C10.4822 22.7058 9.81758 24.4355 9.26504 26.1972ZM18.6021 34.0448C17.2809 35.254 15.7514 36.215 14.0857 36.8716C13.1969 37.296 12.1719 37.3361 11.259 36.9757C9.98574 36.239 9.45723 33.4122 10.1779 29.6085C10.266 29.1601 10.3621 28.7116 10.4742 28.2712C12.268 28.6556 14.0777 28.9198 15.9115 29.056C16.9686 30.5534 18.1297 31.9868 19.3709 33.3322C19.1146 33.5804 18.8584 33.8206 18.6021 34.0448ZM20.5641 32.0989C19.7473 31.2181 18.9305 30.2411 18.1377 29.1921C18.9064 29.2241 19.6992 29.2402 20.5 29.2402C21.3248 29.2402 22.1336 29.2241 22.9344 29.1841C22.1977 30.2011 21.4049 31.17 20.5641 32.0989ZM31.0303 34.5013C30.9582 35.4782 30.4777 36.3911 29.709 37.0077C28.4357 37.7445 25.7211 36.7835 22.7902 34.2691C22.4539 33.9808 22.1176 33.6685 21.7732 33.3482C22.9984 31.9948 24.1275 30.5614 25.1525 29.056C26.9863 28.9038 28.8121 28.6236 30.6139 28.2152C30.6939 28.5435 30.766 28.8718 30.8301 29.1921C31.2225 30.9218 31.2865 32.7236 31.0303 34.5013ZM32.4877 25.8929C32.2635 25.965 32.0393 26.037 31.807 26.1011C31.2465 24.3554 30.5578 22.6497 29.765 20.9921C30.5338 19.3585 31.1824 17.6769 31.727 15.9552C32.1434 16.0753 32.5438 16.2034 32.9281 16.3316C36.6598 17.6128 39.2783 19.5187 39.2783 20.9761C39.2783 22.5456 36.4836 24.5716 32.4877 25.8929ZM20.5 24.6917C22.526 24.6917 24.1676 23.0501 24.1676 21.0241C24.1676 18.9982 22.526 17.3566 20.5 17.3566C18.474 17.3566 16.8324 18.9982 16.8324 21.0241C16.8324 23.0501 18.474 24.6917 20.5 24.6917Z" fill="#F64348"/>
</svg>
