<svg width="36" height="36" viewBox="0 0 36 36" fill="none" xmlns="http://www.w3.org/2000/svg">
<path id="Whatsapp" d="M30.5643 5.30079C27.209 1.93751 22.7406 0.0877075 17.992 0.0877075C8.19043 0.0877075 0.214648 8.06349 0.214648 17.8651C0.214648 20.9961 1.03145 24.0551 2.58496 26.7537L0.0625 35.9627L9.48769 33.4883C12.0822 34.9057 15.0051 35.6504 17.984 35.6504H17.992C27.7855 35.6504 35.9375 27.6746 35.9375 17.8731C35.9375 13.1244 33.9195 8.66407 30.5643 5.30079ZM17.992 32.6555C15.3334 32.6555 12.7309 31.9428 10.4646 30.5975L9.92812 30.2772L4.33867 31.7426L5.82812 26.2893L5.47578 25.7287C3.99434 23.3744 3.21758 20.6598 3.21758 17.8651C3.21758 9.72111 9.84805 3.09064 18 3.09064C21.9479 3.09064 25.6555 4.62814 28.4422 7.42286C31.2289 10.2176 32.9426 13.9252 32.9346 17.8731C32.9346 26.025 26.1359 32.6555 17.992 32.6555ZM26.0959 21.5887C25.6555 21.3645 23.4693 20.2914 23.0609 20.1473C22.6525 19.9951 22.3563 19.9231 22.06 20.3715C21.7637 20.8199 20.9148 21.8129 20.6506 22.1172C20.3943 22.4135 20.1301 22.4535 19.6896 22.2293C17.0791 20.924 15.3654 19.899 13.6438 16.9442C13.1873 16.1594 14.1002 16.2154 14.949 14.5178C15.0932 14.2215 15.0211 13.9652 14.909 13.741C14.7969 13.5168 13.908 11.3307 13.5396 10.4418C13.1793 9.57697 12.8109 9.69708 12.5387 9.68107C12.2824 9.66505 11.9861 9.66505 11.6898 9.66505C11.3936 9.66505 10.9131 9.77716 10.5047 10.2176C10.0963 10.666 8.95117 11.7391 8.95117 13.9252C8.95117 16.1113 10.5447 18.2254 10.7609 18.5217C10.9852 18.818 13.892 23.3024 18.3523 25.2322C21.1711 26.4494 22.2762 26.5535 23.6855 26.3453C24.5424 26.2172 26.3121 25.2723 26.6805 24.2313C27.0488 23.1902 27.0488 22.3014 26.9367 22.1172C26.8326 21.917 26.5363 21.8049 26.0959 21.5887Z" fill="url(#paint0_linear_127_31)"/>
<defs>
<linearGradient id="paint0_linear_127_31" x1="18" y1="0.0877075" x2="18" y2="35.9627" gradientUnits="userSpaceOnUse">
<stop stop-color="#F64348"/>
<stop offset="1" stop-color="#F64348" stop-opacity="0"/>
</linearGradient>
</defs>
</svg>
